# Blender v2.82 (sub 7) OBJ File: 'UV Mapping Distrobution Hall.blend'
# www.blender.org
o Ramp_Building_Mesh.001
v -0.002727 -0.000685 1.937209
v -0.002727 -0.000685 -1.855451
v -11.332975 0.000000 1.937209
v -0.002727 0.300867 1.937209
v -0.002727 0.300868 -1.855451
v -11.332975 0.000001 -1.855451
v 0.160804 -0.000685 1.937209
v 0.160804 0.300867 1.937209
v 0.160804 0.300868 -1.855451
v 0.160804 -0.000685 -1.855451
vn 0.0000 1.0000 0.0000
vn 0.0000 -0.0000 1.0000
vn 0.0000 -0.7071 -0.7071
vn 0.0000 0.0000 -1.0000
vn 0.0000 -0.7071 0.7071
vn -0.0001 -1.0000 -0.0000
vn 1.0000 0.0000 0.0000
s off
f 5//1 4//1 8//1 9//1
s 1
f 4//2 3//2 1//2
f 2//3 5//4 9//4 10//3
f 1//5 2//3 10//3 7//5
f 2//6 1//6 3//6
f 6//6 2//6 3//6
f 6//4 5//4 2//4
f 9//7 8//7 7//7
f 10//7 9//7 7//7
f 4//2 1//5 7//5 8//2
o SideWall_Side_Wall_Architecture_Mesh.005
v -5.104658 0.000001 -3.465532
v -5.104658 0.000002 -5.260727
v -5.104658 3.493249 -5.260726
v -5.104658 3.493249 -3.465531
v 0.158856 0.000001 -3.465532
v 0.158856 0.000002 -5.260727
v 0.158856 3.493249 -3.465531
v 0.158856 3.493249 -5.260726
vn -1.0000 0.0000 0.0000
vn 0.0000 -1.0000 -0.0000
vn 1.0000 0.0000 0.0000
vn 0.0000 1.0000 0.0000
vn 0.0000 0.0000 -1.0000
s 1
f 13//8 12//8 11//8
f 14//8 13//8 11//8
f 12//9 16//9 15//9
f 11//9 12//9 15//9
f 16//10 18//10 17//10
f 15//10 16//10 17//10
f 18//11 13//11 14//11
f 17//11 18//11 14//11
f 18//12 16//12 12//12
f 13//12 18//12 12//12
o Wearhouse_Front_Mesh.007
v 0.178266 0.000001 -5.259483
v 0.178266 -0.000000 5.462028
v 7.798266 -0.000000 5.462028
v 7.798266 0.000001 -5.259483
v 0.178266 4.494616 5.462029
v 7.798266 4.494616 5.462029
v 0.178266 6.262227 -0.036207
v 7.798266 6.262227 -0.036207
v 0.178266 4.494618 -5.259482
v 7.798266 4.494618 -5.259482
v 0.178266 0.000001 -0.900055
v 0.178266 0.000000 0.900056
vt 0.000000 0.000000
vt 0.000000 0.000000
vt 0.000000 0.000000
vt 0.000000 0.000000
vt 0.000000 0.000000
vt 0.000000 0.000000
vt 0.000000 0.000000
vt 0.000000 0.000000
vt 0.000000 0.000000
vt 0.000000 0.000000
vt 0.000000 0.000000
vn -0.0000 -1.0000 -0.0000
vn -0.7071 -0.7071 -0.0000
vn -0.9306 -0.3661 -0.0000
vn 0.0000 -0.0000 1.0000
vn 0.0000 0.9520 0.3061
vn 0.0000 0.9472 -0.3206
vn 0.0000 0.0000 -1.0000
vn -1.0000 0.0000 0.0000
s 1
f 20/1/13 30/2/14 19/3/15 21/4/13
f 22/5/13 21/4/13 19/3/13
f 24/6/16 23/7/16 20/1/16
f 21/4/16 24/6/16 20/1/16
f 26/8/17 25/9/17 23/7/17
f 24/6/17 26/8/17 23/7/17
f 28/10/18 27/11/18 25/9/18
f 26/8/18 28/10/18 25/9/18
f 22/5/19 19/3/19 27/11/19
f 28/10/19 22/5/19 27/11/19
f 28/10/20 22/5/20 21/4/20
f 28/10/20 21/4/20 24/6/20
f 28/10/20 24/6/20 26/8/20
f 20/1/20 23/7/20 25/9/20 27/11/20
f 20/1/20 27/11/20 19/3/15 30/2/14
l 19 29
